<svg width="239" height="275" viewBox="0 0 239 275" fill="none" xmlns="http://www.w3.org/2000/svg">
<path d="M35 31C73.2005 57.5152 109.626 87.0398 142.561 119.958C164.067 141.453 185.909 165.93 201.294 192.434C215.921 217.632 224.425 247.556 234 275" stroke="white" stroke-width="9" stroke-linecap="round" stroke-linejoin="round"/>
<path d="M26.5167 140.104C22.8834 108.817 19.2136 77.7566 14.2214 46.6941C12.8628 38.2403 12.5435 28.4442 9.52534 20.3959C7.92692 16.1334 5 12.6143 5 7.92986C5 0.524159 26.3793 9.40312 28.9075 10.1498C50.2611 16.4568 71.4807 23.4406 92.433 30.9835C107.734 36.492 124.247 39.1205 138.711 46.3526" stroke="white" stroke-width="10" stroke-linecap="round" stroke-linejoin="round"/>
</svg>
