<svg width="286" height="159" viewBox="0 0 286 159" fill="none" xmlns="http://www.w3.org/2000/svg">
<path d="M239 84C194.234 76.5438 151.516 68.0735 112.845 58.4187C87.5934 52.1143 61.9273 44.8626 43.7788 36.7833C26.5247 29.1022 16.3773 19.7372 4.99975 11.1967" stroke="white" stroke-width="9" stroke-linecap="round" stroke-linejoin="round"/>
<path d="M213.632 15.4533C227.609 35.4076 241.533 55.1928 256.443 74.4599C260.501 79.7035 264.267 86.2727 269.416 90.5873C272.143 92.8723 275.592 94.1274 277.28 97.3288C279.947 102.39 260.813 104.721 258.659 105.204C240.47 109.284 222.137 112.848 203.802 115.925C190.412 118.172 177.156 122.863 163.77 123.603" stroke="white" stroke-width="10" stroke-linecap="round" stroke-linejoin="round"/>
</svg>